<svg width="40" height="40" viewBox="0 0 40 40" fill="none" xmlns="http://www.w3.org/2000/svg">
<g clip-path="url(#clip0_2046_678)">
<rect width="40" height="40" rx="20" fill="#A1A2A1"/>
<path d="M9.79973 22.786C9.79973 23.314 9.89507 23.7613 10.0857 24.128C10.2764 24.4947 10.5257 24.7953 10.8337 25.03C11.1564 25.25 11.5304 25.4187 11.9557 25.536C12.3811 25.6387 12.8211 25.69 13.2757 25.69C13.5837 25.69 13.9137 25.668 14.2657 25.624C14.6177 25.5653 14.9477 25.4627 15.2557 25.316C15.5637 25.1693 15.8204 24.9713 16.0257 24.722C16.2311 24.458 16.3337 24.128 16.3337 23.732C16.3337 23.3067 16.1944 22.962 15.9157 22.698C15.6517 22.434 15.2997 22.214 14.8597 22.038C14.4197 21.862 13.9211 21.708 13.3637 21.576C12.8064 21.444 12.2417 21.2973 11.6697 21.136C11.0831 20.9893 10.5111 20.8133 9.95373 20.608C9.3964 20.388 8.89773 20.1093 8.45773 19.772C8.01773 19.4347 7.6584 19.0167 7.37973 18.518C7.11573 18.0047 6.98373 17.3887 6.98373 16.67C6.98373 15.8633 7.1524 15.1667 7.48973 14.58C7.84173 13.9787 8.2964 13.48 8.85373 13.084C9.41107 12.688 10.0417 12.3947 10.7457 12.204C11.4497 12.0133 12.1537 11.918 12.8577 11.918C13.6791 11.918 14.4637 12.0133 15.2117 12.204C15.9744 12.38 16.6491 12.6733 17.2357 13.084C17.8224 13.4947 18.2844 14.0227 18.6217 14.668C18.9737 15.2987 19.1497 16.0687 19.1497 16.978H15.8057C15.7764 16.5087 15.6737 16.12 15.4977 15.812C15.3364 15.504 15.1164 15.262 14.8377 15.086C14.5591 14.91 14.2364 14.7853 13.8697 14.712C13.5177 14.6387 13.1291 14.602 12.7037 14.602C12.4251 14.602 12.1464 14.6313 11.8677 14.69C11.5891 14.7487 11.3324 14.8513 11.0977 14.998C10.8777 15.1447 10.6944 15.328 10.5477 15.548C10.4011 15.768 10.3277 16.0467 10.3277 16.384C10.3277 16.692 10.3864 16.9413 10.5037 17.132C10.6211 17.3227 10.8484 17.4987 11.1857 17.66C11.5377 17.8213 12.0144 17.9827 12.6157 18.144C13.2317 18.3053 14.0311 18.5107 15.0137 18.76C15.3071 18.8187 15.7104 18.9287 16.2237 19.09C16.7517 19.2367 17.2724 19.4787 17.7857 19.816C18.2991 20.1533 18.7391 20.608 19.1057 21.18C19.4871 21.7373 19.6777 22.456 19.6777 23.336C19.6777 24.0547 19.5384 24.722 19.2597 25.338C18.9811 25.954 18.5631 26.4893 18.0057 26.944C17.4631 27.384 16.7811 27.7287 15.9597 27.978C15.1531 28.2273 14.2144 28.352 13.1437 28.352C12.2784 28.352 11.4351 28.242 10.6137 28.022C9.80707 27.8167 9.0884 27.4867 8.45773 27.032C7.84173 26.5773 7.3504 25.998 6.98373 25.294C6.61707 24.59 6.44107 23.754 6.45573 22.786H9.79973ZM29.0368 28H25.1428L20.0608 12.292H23.6028L27.1008 23.336H27.1448L30.6868 12.292H34.2508L29.0368 28Z" fill="#231F20"/>
</g>
<defs>
<clipPath id="clip0_2046_678">
<rect width="40" height="40" rx="20" fill="white"/>
</clipPath>
</defs>
</svg>
