<svg width="40" height="40" viewBox="0 0 40 40" fill="none" xmlns="http://www.w3.org/2000/svg">
<g clip-path="url(#clip0_2046_682)">
<rect width="40" height="40" rx="20" fill="#0076C0"/>
<path d="M10.7064 18.65H14.2044C14.8204 18.65 15.3264 18.5033 15.7224 18.21C16.1184 17.9167 16.3164 17.44 16.3164 16.78C16.3164 16.4133 16.2504 16.1127 16.1184 15.878C15.9864 15.6433 15.8104 15.46 15.5904 15.328C15.3704 15.196 15.1137 15.108 14.8204 15.064C14.5417 15.0053 14.2484 14.976 13.9404 14.976H10.7064V18.65ZM7.25238 12.292H14.6444C15.3924 12.292 16.0744 12.358 16.6904 12.49C17.3064 12.622 17.8344 12.842 18.2744 13.15C18.7144 13.4433 19.0517 13.8393 19.2864 14.338C19.5357 14.8367 19.6604 15.4527 19.6604 16.186C19.6604 16.978 19.477 17.638 19.1104 18.166C18.7584 18.694 18.2304 19.1267 17.5264 19.464C18.4944 19.7427 19.213 20.234 19.6824 20.938C20.1664 21.6273 20.4084 22.4633 20.4084 23.446C20.4084 24.238 20.2544 24.9273 19.9464 25.514C19.6384 26.086 19.2204 26.5553 18.6924 26.922C18.179 27.2887 17.585 27.56 16.9104 27.736C16.2504 27.912 15.5684 28 14.8644 28H7.25238V12.292ZM10.7064 25.316H14.4024C14.7397 25.316 15.0624 25.2867 15.3704 25.228C15.6784 25.1547 15.9497 25.0447 16.1844 24.898C16.419 24.7367 16.6024 24.524 16.7344 24.26C16.881 23.996 16.9544 23.6587 16.9544 23.248C16.9544 22.4413 16.727 21.8693 16.2724 21.532C15.8177 21.18 15.2164 21.004 14.4684 21.004H10.7064V25.316ZM22.7426 12.292H26.1966V25.096H33.8526V28H22.7426V12.292Z" fill="white"/>
</g>
<defs>
<clipPath id="clip0_2046_682">
<rect width="40" height="40" rx="20" fill="white"/>
</clipPath>
</defs>
</svg>
