<svg width="40" height="40" viewBox="0 0 40 40" fill="none" xmlns="http://www.w3.org/2000/svg">
<g clip-path="url(#clip0_2046_681)">
<rect width="40" height="40" rx="20" fill="#F7941D"/>
<path d="M7.79 20.212C7.79 20.872 7.86333 21.5173 8.01 22.148C8.17133 22.764 8.42067 23.3213 8.758 23.82C9.09533 24.3187 9.53533 24.722 10.078 25.03C10.6207 25.3233 11.2807 25.47 12.058 25.47C12.8353 25.47 13.4953 25.3233 14.038 25.03C14.5807 24.722 15.0207 24.3187 15.358 23.82C15.6953 23.3213 15.9373 22.764 16.084 22.148C16.2453 21.5173 16.326 20.872 16.326 20.212C16.326 19.5227 16.2453 18.8553 16.084 18.21C15.9373 17.5647 15.6953 16.9927 15.358 16.494C15.0207 15.9807 14.5807 15.5773 14.038 15.284C13.4953 14.976 12.8353 14.822 12.058 14.822C11.2807 14.822 10.6207 14.976 10.078 15.284C9.53533 15.5773 9.09533 15.9807 8.758 16.494C8.42067 16.9927 8.17133 17.5647 8.01 18.21C7.86333 18.8553 7.79 19.5227 7.79 20.212ZM4.336 20.212C4.336 19.0387 4.512 17.9533 4.864 16.956C5.216 15.944 5.722 15.064 6.382 14.316C7.042 13.568 7.84867 12.9813 8.802 12.556C9.77 12.1307 10.8553 11.918 12.058 11.918C13.2753 11.918 14.3607 12.1307 15.314 12.556C16.2673 12.9813 17.074 13.568 17.734 14.316C18.394 15.064 18.9 15.944 19.252 16.956C19.604 17.9533 19.78 19.0387 19.78 20.212C19.78 21.356 19.604 22.4267 19.252 23.424C18.9 24.4067 18.394 25.2647 17.734 25.998C17.074 26.7313 16.2673 27.3107 15.314 27.736C14.3607 28.1467 13.2753 28.352 12.058 28.352C10.8553 28.352 9.77 28.1467 8.802 27.736C7.84867 27.3107 7.042 26.7313 6.382 25.998C5.722 25.2647 5.216 24.4067 4.864 23.424C4.512 22.4267 4.336 21.356 4.336 20.212ZM25.595 19.398H29.379C30.171 19.398 30.765 19.222 31.161 18.87C31.557 18.518 31.755 17.946 31.755 17.154C31.755 16.3913 31.557 15.8413 31.161 15.504C30.765 15.152 30.171 14.976 29.379 14.976H25.595V19.398ZM22.141 12.292H30.611C31.315 12.292 31.9457 12.4093 32.503 12.644C33.075 12.864 33.559 13.172 33.955 13.568C34.3657 13.964 34.6737 14.426 34.879 14.954C35.099 15.4673 35.209 16.0247 35.209 16.626C35.209 17.55 35.011 18.3493 34.615 19.024C34.2337 19.6987 33.603 20.212 32.723 20.564V20.608C33.1484 20.7253 33.5004 20.9087 33.779 21.158C34.0577 21.3927 34.285 21.6787 34.461 22.016C34.637 22.3387 34.7617 22.698 34.835 23.094C34.923 23.49 34.9817 23.886 35.011 24.282C35.0257 24.5313 35.0404 24.8247 35.055 25.162C35.0697 25.4993 35.0917 25.844 35.121 26.196C35.165 26.548 35.2237 26.8853 35.297 27.208C35.385 27.516 35.5097 27.78 35.671 28H32.217C32.0264 27.5013 31.909 26.9073 31.865 26.218C31.821 25.5287 31.755 24.8687 31.667 24.238C31.5497 23.4167 31.3004 22.8153 30.919 22.434C30.5377 22.0527 29.9144 21.862 29.049 21.862H25.595V28H22.141V12.292Z" fill="#231F20"/>
</g>
<defs>
<clipPath id="clip0_2046_681">
<rect width="40" height="40" rx="20" fill="white"/>
</clipPath>
</defs>
</svg>
