<svg width="40" height="40" viewBox="0 0 40 40" fill="none" xmlns="http://www.w3.org/2000/svg">
<g clip-path="url(#clip0_2046_683)">
<rect width="40" height="40" rx="20" fill="#E31937"/>
<path d="M8.8802 19.398H12.6642C13.4562 19.398 14.0502 19.222 14.4462 18.87C14.8422 18.518 15.0402 17.946 15.0402 17.154C15.0402 16.3913 14.8422 15.8413 14.4462 15.504C14.0502 15.152 13.4562 14.976 12.6642 14.976H8.8802V19.398ZM5.4262 12.292H13.8962C14.6002 12.292 15.2309 12.4093 15.7882 12.644C16.3602 12.864 16.8442 13.172 17.2402 13.568C17.6509 13.964 17.9589 14.426 18.1642 14.954C18.3842 15.4673 18.4942 16.0247 18.4942 16.626C18.4942 17.55 18.2962 18.3493 17.9002 19.024C17.5189 19.6987 16.8882 20.212 16.0082 20.564V20.608C16.4335 20.7253 16.7855 20.9087 17.0642 21.158C17.3429 21.3927 17.5702 21.6787 17.7462 22.016C17.9222 22.3387 18.0469 22.698 18.1202 23.094C18.2082 23.49 18.2669 23.886 18.2962 24.282C18.3109 24.5313 18.3255 24.8247 18.3402 25.162C18.3549 25.4993 18.3769 25.844 18.4062 26.196C18.4502 26.548 18.5089 26.8853 18.5822 27.208C18.6702 27.516 18.7949 27.78 18.9562 28H15.5022C15.3115 27.5013 15.1942 26.9073 15.1502 26.218C15.1062 25.5287 15.0402 24.8687 14.9522 24.238C14.8349 23.4167 14.5855 22.8153 14.2042 22.434C13.8229 22.0527 13.1995 21.862 12.3342 21.862H8.8802V28H5.4262V12.292ZM24.7572 25.096H27.8372C28.3358 25.096 28.8198 25.0153 29.2892 24.854C29.7585 24.6927 30.1765 24.4287 30.5432 24.062C30.9098 23.6807 31.2032 23.1893 31.4232 22.588C31.6432 21.9867 31.7532 21.2533 31.7532 20.388C31.7532 19.596 31.6725 18.8847 31.5112 18.254C31.3645 17.6087 31.1152 17.0587 30.7632 16.604C30.4112 16.1493 29.9418 15.8047 29.3552 15.57C28.7832 15.3207 28.0718 15.196 27.2212 15.196H24.7572V25.096ZM21.3032 12.292H28.0792C29.0912 12.292 30.0298 12.4533 30.8952 12.776C31.7752 13.0987 32.5305 13.5827 33.1612 14.228C33.8065 14.8733 34.3052 15.68 34.6572 16.648C35.0238 17.616 35.2072 18.7527 35.2072 20.058C35.2072 21.202 35.0605 22.258 34.7672 23.226C34.4738 24.194 34.0265 25.03 33.4252 25.734C32.8385 26.438 32.0978 26.9953 31.2032 27.406C30.3232 27.802 29.2818 28 28.0792 28H21.3032V12.292Z" fill="white"/>
</g>
<defs>
<clipPath id="clip0_2046_683">
<rect width="40" height="40" rx="20" fill="white"/>
</clipPath>
</defs>
</svg>
