<svg width="40" height="40" viewBox="0 0 40 40" fill="none" xmlns="http://www.w3.org/2000/svg">
<g clip-path="url(#clip0_2046_679)">
<rect width="40" height="40" rx="20" fill="#00A94F"/>
<path d="M16.5848 26.218C15.9688 27.01 15.2868 27.5673 14.5388 27.89C13.7908 28.198 13.0355 28.352 12.2728 28.352C11.0702 28.352 9.98484 28.1467 9.01684 27.736C8.06351 27.3107 7.25684 26.7313 6.59684 25.998C5.93684 25.2647 5.43084 24.4067 5.07884 23.424C4.72684 22.4267 4.55084 21.356 4.55084 20.212C4.55084 19.0387 4.72684 17.9533 5.07884 16.956C5.43084 15.944 5.93684 15.064 6.59684 14.316C7.25684 13.568 8.06351 12.9813 9.01684 12.556C9.98484 12.1307 11.0702 11.918 12.2728 11.918C13.0795 11.918 13.8568 12.0427 14.6048 12.292C15.3675 12.5267 16.0495 12.8787 16.6508 13.348C17.2668 13.8173 17.7728 14.3967 18.1688 15.086C18.5648 15.7753 18.8068 16.5673 18.8948 17.462H15.5948C15.3895 16.582 14.9935 15.922 14.4068 15.482C13.8202 15.042 13.1088 14.822 12.2728 14.822C11.4955 14.822 10.8355 14.976 10.2928 15.284C9.75018 15.5773 9.31018 15.9807 8.97284 16.494C8.63551 16.9927 8.38618 17.5647 8.22484 18.21C8.07818 18.8553 8.00484 19.5227 8.00484 20.212C8.00484 20.872 8.07818 21.5173 8.22484 22.148C8.38618 22.764 8.63551 23.3213 8.97284 23.82C9.31018 24.3187 9.75018 24.722 10.2928 25.03C10.8355 25.3233 11.4955 25.47 12.2728 25.47C13.4168 25.47 14.2968 25.184 14.9128 24.612C15.5435 24.0253 15.9102 23.182 16.0128 22.082H12.5368V19.508H19.1368V28H16.9368L16.5848 26.218ZM25.3802 19.398H29.1642C29.9562 19.398 30.5502 19.222 30.9462 18.87C31.3422 18.518 31.5402 17.946 31.5402 17.154C31.5402 16.3913 31.3422 15.8413 30.9462 15.504C30.5502 15.152 29.9562 14.976 29.1642 14.976H25.3802V19.398ZM21.9262 12.292H30.3962C31.1002 12.292 31.7309 12.4093 32.2882 12.644C32.8602 12.864 33.3442 13.172 33.7402 13.568C34.1509 13.964 34.4589 14.426 34.6642 14.954C34.8842 15.4673 34.9942 16.0247 34.9942 16.626C34.9942 17.55 34.7962 18.3493 34.4002 19.024C34.0189 19.6987 33.3882 20.212 32.5082 20.564V20.608C32.9335 20.7253 33.2855 20.9087 33.5642 21.158C33.8429 21.3927 34.0702 21.6787 34.2462 22.016C34.4222 22.3387 34.5469 22.698 34.6202 23.094C34.7082 23.49 34.7669 23.886 34.7962 24.282C34.8109 24.5313 34.8255 24.8247 34.8402 25.162C34.8549 25.4993 34.8769 25.844 34.9062 26.196C34.9502 26.548 35.0089 26.8853 35.0822 27.208C35.1702 27.516 35.2949 27.78 35.4562 28H32.0022C31.8115 27.5013 31.6942 26.9073 31.6502 26.218C31.6062 25.5287 31.5402 24.8687 31.4522 24.238C31.3349 23.4167 31.0855 22.8153 30.7042 22.434C30.3229 22.0527 29.6995 21.862 28.8342 21.862H25.3802V28H21.9262V12.292Z" fill="white"/>
</g>
<defs>
<clipPath id="clip0_2046_679">
<rect width="40" height="40" rx="20" fill="white"/>
</clipPath>
</defs>
</svg>
