<svg width="40" height="40" viewBox="0 0 40 40" fill="none" xmlns="http://www.w3.org/2000/svg">
<path d="M20 3C20.5523 3 21 3.44772 21 4V9.04688C26.277 9.52249 30.4775 13.723 30.9531 19H36C36.5523 19 37 19.4477 37 20C37 20.5523 36.5523 21 36 21H30.9531C30.4775 26.277 26.277 30.4765 21 30.9521V36C21 36.5523 20.5523 37 20 37C19.4477 37 19 36.5523 19 36V30.9521C13.7231 30.4765 9.52249 26.277 9.04688 21H4C3.44772 21 3 20.5523 3 20C3 19.4477 3.44772 19 4 19H9.04688C9.5225 13.723 13.723 9.5225 19 9.04688V4C19 3.44772 19.4477 3.00001 20 3ZM20 11C15.0294 11 11 15.0294 11 20C11 24.9706 15.0294 29 20 29C24.9706 29 29 24.9706 29 20C29 15.0294 24.9706 11 20 11Z" fill="white"/>
</svg>
