<svg width="100" height="100" viewBox="0 0 100 100" fill="none" xmlns="http://www.w3.org/2000/svg">
<mask id="path-1-inside-1_2051_1287" fill="white">
<path d="M50 5C69.33 5 85 17.5 85 42C85 61.0847 63.7625 83.2033 54.374 92.0488C51.893 94.3863 48.107 94.3863 45.626 92.0488C36.2375 83.2033 15 61.0847 15 42C15 17.5 30.67 5 50 5ZM50 23C40.6112 23 33 30.6112 33 40C33 49.3888 40.6112 57 50 57C59.3888 57 67 49.3888 67 40C67 30.6112 59.3888 23 50 23Z"/>
</mask>
<g filter="url(#filter0_iii_2051_1287)">
<path d="M50 5C69.33 5 85 17.5 85 42C85 61.0847 63.7625 83.2033 54.374 92.0488C51.893 94.3863 48.107 94.3863 45.626 92.0488C36.2375 83.2033 15 61.0847 15 42C15 17.5 30.67 5 50 5ZM50 23C40.6112 23 33 30.6112 33 40C33 49.3888 40.6112 57 50 57C59.3888 57 67 49.3888 67 40C67 30.6112 59.3888 23 50 23Z" fill="#1155EE"/>
<path d="M50 5C69.33 5 85 17.5 85 42C85 61.0847 63.7625 83.2033 54.374 92.0488C51.893 94.3863 48.107 94.3863 45.626 92.0488C36.2375 83.2033 15 61.0847 15 42C15 17.5 30.67 5 50 5ZM50 23C40.6112 23 33 30.6112 33 40C33 49.3888 40.6112 57 50 57C59.3888 57 67 49.3888 67 40C67 30.6112 59.3888 23 50 23Z" fill="url(#paint0_linear_2051_1287)" fill-opacity="0.4"/>
</g>
<path d="M54.374 92.0488L55.0598 92.7767L55.0598 92.7767L54.374 92.0488ZM45.626 92.0488L44.9402 92.7767L44.9402 92.7767L45.626 92.0488ZM50 5V6C59.4507 6 67.934 9.05315 74.0499 15.0278C80.159 20.9958 84 29.9708 84 42H85H86C86 29.5292 82.006 20.0042 75.4475 13.5972C68.8959 7.19685 59.8793 4 50 4V5ZM85 42H84C84 51.2147 78.8508 61.2982 72.3956 70.2805C65.9655 79.2279 58.3602 86.9193 53.6883 91.321L54.374 92.0488L55.0598 92.7767C59.7763 88.3328 67.484 80.5421 74.0197 71.4477C80.5304 62.3881 86 51.87 86 42H85ZM54.374 92.0488L53.6883 91.321C51.5924 93.2956 48.4076 93.2956 46.3117 91.321L45.626 92.0488L44.9402 92.7767C47.8064 95.477 52.1936 95.477 55.0598 92.7767L54.374 92.0488ZM45.626 92.0488L46.3117 91.321C41.6398 86.9193 34.0345 79.2279 27.6044 70.2805C21.1492 61.2982 16 51.2147 16 42H15H14C14 51.87 19.4696 62.3881 25.9803 71.4477C32.516 80.5421 40.2237 88.3328 44.9402 92.7767L45.626 92.0488ZM15 42H16C16 29.9708 19.841 20.9958 25.9501 15.0278C32.066 9.05315 40.5493 6 50 6V5V4C40.1207 4 31.1041 7.19685 24.5525 13.5972C17.994 20.0042 14 29.5292 14 42H15ZM50 23V22C40.0589 22 32 30.0589 32 40H33H34C34 31.1634 41.1634 24 50 24V23ZM33 40H32C32 49.9411 40.0589 58 50 58V57V56C41.1634 56 34 48.8366 34 40H33ZM50 57V58C59.9411 58 68 49.9411 68 40H67H66C66 48.8366 58.8366 56 50 56V57ZM67 40H68C68 30.0589 59.9411 22 50 22V23V24C58.8366 24 66 31.1634 66 40H67Z" fill="url(#paint1_linear_2051_1287)" mask="url(#path-1-inside-1_2051_1287)"/>
<defs>
<filter id="filter0_iii_2051_1287" x="11" y="1" width="76" height="96.802" filterUnits="userSpaceOnUse" color-interpolation-filters="sRGB">
<feFlood flood-opacity="0" result="BackgroundImageFix"/>
<feBlend mode="normal" in="SourceGraphic" in2="BackgroundImageFix" result="shape"/>
<feColorMatrix in="SourceAlpha" type="matrix" values="0 0 0 0 0 0 0 0 0 0 0 0 0 0 0 0 0 0 127 0" result="hardAlpha"/>
<feOffset dx="2" dy="4"/>
<feGaussianBlur stdDeviation="2"/>
<feComposite in2="hardAlpha" operator="arithmetic" k2="-1" k3="1"/>
<feColorMatrix type="matrix" values="0 0 0 0 1 0 0 0 0 1 0 0 0 0 1 0 0 0 0.2 0"/>
<feBlend mode="normal" in2="shape" result="effect1_innerShadow_2051_1287"/>
<feColorMatrix in="SourceAlpha" type="matrix" values="0 0 0 0 0 0 0 0 0 0 0 0 0 0 0 0 0 0 127 0" result="hardAlpha"/>
<feOffset dx="-4" dy="-4"/>
<feGaussianBlur stdDeviation="3.5"/>
<feComposite in2="hardAlpha" operator="arithmetic" k2="-1" k3="1"/>
<feColorMatrix type="matrix" values="0 0 0 0 0 0 0 0 0 0 0 0 0 0 0 0 0 0 0.2 0"/>
<feBlend mode="normal" in2="effect1_innerShadow_2051_1287" result="effect2_innerShadow_2051_1287"/>
<feColorMatrix in="SourceAlpha" type="matrix" values="0 0 0 0 0 0 0 0 0 0 0 0 0 0 0 0 0 0 127 0" result="hardAlpha"/>
<feOffset dx="-1" dy="-1"/>
<feGaussianBlur stdDeviation="2.35"/>
<feComposite in2="hardAlpha" operator="arithmetic" k2="-1" k3="1"/>
<feColorMatrix type="matrix" values="0 0 0 0 1 0 0 0 0 1 0 0 0 0 1 0 0 0 0.7 0"/>
<feBlend mode="normal" in2="effect2_innerShadow_2051_1287" result="effect3_innerShadow_2051_1287"/>
</filter>
<linearGradient id="paint0_linear_2051_1287" x1="15" y1="14.401" x2="85" y2="84.401" gradientUnits="userSpaceOnUse">
<stop stop-color="white"/>
<stop offset="1" stop-color="white" stop-opacity="0"/>
</linearGradient>
<linearGradient id="paint1_linear_2051_1287" x1="50" y1="5" x2="50" y2="93.8019" gradientUnits="userSpaceOnUse">
<stop stop-color="white" stop-opacity="0"/>
<stop offset="1" stop-color="white"/>
</linearGradient>
</defs>
</svg>
