<svg width="40" height="40" viewBox="0 0 40 40" fill="none" xmlns="http://www.w3.org/2000/svg">
<path d="M20 3C29.3888 3 37 10.6112 37 20C37 29.3888 29.3888 37 20 37C10.6112 37 3 29.3888 3 20C3 10.6112 10.6112 3 20 3ZM19.4961 27.2256C18.6641 27.2256 18.0242 27.4607 17.5762 27.9307C17.1282 28.4006 16.9043 28.9617 16.9043 29.6133C16.9044 30.2646 17.1283 30.8251 17.5762 31.2949C18.0348 31.7649 18.6748 32 19.4961 32C20.3493 32 20.9943 31.7648 21.4316 31.2949C21.8795 30.8251 22.1034 30.2646 22.1035 29.6133C22.1035 28.9617 21.8796 28.4006 21.4316 27.9307C20.9943 27.4608 20.3493 27.2256 19.4961 27.2256ZM19.96 8C17.8268 8.00001 16.1307 8.54448 14.8721 9.63379C13.6241 10.7125 13 12.1975 13 14.0879V14.6807H17.0801V14.2803C17.0801 13.2763 17.3149 12.5126 17.7842 11.9893C18.2535 11.466 18.9579 11.2041 19.8965 11.2041C20.8454 11.2042 21.5383 11.4661 21.9756 11.9893C22.4235 12.5019 22.6484 13.2441 22.6484 14.2158C22.6484 15.1664 22.4295 15.936 21.9922 16.5234C21.5655 17.1002 20.9097 17.7947 20.0244 18.6064C18.9685 19.5569 18.2483 20.4591 17.8643 21.3135C17.491 22.1572 17.3038 23.1987 17.3037 24.4375V24.71H21.5439V24.4863C21.5439 23.8029 21.6669 23.1299 21.9121 22.4678C22.1681 21.7949 22.7387 21.0787 23.624 20.3203C24.5092 19.5514 25.293 18.6758 25.9756 17.6934C26.6582 16.7108 27 15.4767 27 13.9922C27 12.1552 26.3709 10.6969 25.1123 9.61816C23.8536 8.53939 22.136 8 19.96 8Z" fill="white"/>
</svg>
