<svg width="64" height="64" viewBox="0 0 64 64" fill="none" xmlns="http://www.w3.org/2000/svg">
<path fill-rule="evenodd" clip-rule="evenodd" d="M0.639893 31.9999C0.639893 14.6799 14.68 0.639893 32 0.639893C49.32 0.639893 63.3599 14.6799 63.3599 31.9999C63.3599 49.3199 49.32 63.3599 32 63.3599C14.68 63.3599 0.639893 49.3199 0.639893 31.9999Z" fill="white"/>
<path fill-rule="evenodd" clip-rule="evenodd" d="M24 32C24 36.42 27.58 40 32 40C36.42 40 40 36.42 40 32C40 27.58 36.42 24 32 24C27.58 24 24 27.58 24 32ZM16 32C16 23.16 23.16 16 32 16C40.84 16 48 23.16 48 32C48 40.84 40.84 48 32 48C23.16 48 16 40.84 16 32Z" fill="#231F20"/>
<path fill-rule="evenodd" clip-rule="evenodd" d="M0 32C0 14.33 14.33 0 32 0C49.67 0 64 14.33 64 32C64 49.67 49.67 64 32 64C14.33 64 0 49.67 0 32ZM8 32C8 45.26 18.75 56 32 56C45.25 56 56 45.25 56 32C56 18.75 45.25 8 32 8C18.75 8 8 18.75 8 32Z" fill="#231F20"/>
</svg>
