<svg width="50" height="50" viewBox="0 0 50 50" fill="none" xmlns="http://www.w3.org/2000/svg">
<path d="M30.9834 3L31.3301 3.00879C34.8951 3.18322 37.7839 6.03015 37.9736 9.63184L39.3418 35.6318C39.5469 39.5282 36.5323 42.8156 32.6758 42.9912V44C32.6758 45.6568 31.3325 46.9998 29.6758 47C28.0193 46.9998 26.6758 45.6569 26.6758 44V43H16.6758V44C16.6758 45.6568 15.3325 46.9998 13.6758 47C12.0193 46.9998 10.6758 45.6569 10.6758 44V42.9912C6.81892 42.8159 3.80469 39.5282 4.00977 35.6318L5.37793 9.63184C5.57372 5.91426 8.64544 3.00026 12.3682 3H30.9834ZM12.5732 33.0049C12.0689 33.0562 11.6758 33.4825 11.6758 34V37L11.6807 37.1025C11.732 37.6065 12.158 37.9999 12.6758 38C13.2279 37.9998 13.6758 37.5522 13.6758 37V34C13.6758 33.4478 13.2279 33.0002 12.6758 33L12.5732 33.0049ZM30.5732 33.0049C30.0689 33.0562 29.6758 33.4825 29.6758 34V37L29.6807 37.1025C29.732 37.6065 30.158 37.9999 30.6758 38C31.2279 37.9998 31.6758 37.5522 31.6758 37V34C31.6758 33.4478 31.2279 33.0002 30.6758 33L30.5732 33.0049ZM39.0459 19.25C39.1733 17.5788 41.2335 16.7796 42.4541 18L46.4043 21.9502C47.1354 22.6821 47.1816 23.8403 46.541 24.626L46.4043 24.7783L42.4541 28.7275C41.1942 29.9874 39.04 29.0954 39.04 27.3135V19.4141L39.0459 19.25ZM13.3379 9.00977C12.3618 9.10607 11.5867 9.90569 11.5391 10.9053L10.8252 25.9053C10.7711 27.0459 11.6807 28 12.8223 28H30.5303C31.6717 27.9996 32.5814 27.0455 32.5273 25.9053L31.8135 10.9053C31.7627 9.83915 30.883 9.00017 29.8154 9H13.5361L13.3379 9.00977Z" fill="white" stroke="black" stroke-width="2"/>
</svg>
