<svg width="50" height="50" viewBox="0 0 50 50" fill="none" xmlns="http://www.w3.org/2000/svg">
<path d="M20.0166 3L19.6699 3.00879C16.1049 3.18322 13.2161 6.03015 13.0264 9.63184L11.6582 35.6318C11.4531 39.5282 14.4677 42.8156 18.3242 42.9912V44C18.3242 45.6568 19.6675 46.9998 21.3242 47C22.9807 46.9998 24.3242 45.6569 24.3242 44V43H34.3242V44C34.3242 45.6568 35.6675 46.9998 37.3242 47C38.9807 46.9998 40.3242 45.6569 40.3242 44V42.9912C44.1811 42.8159 47.1953 39.5282 46.9902 35.6318L45.6221 9.63184C45.4263 5.91426 42.3546 3.00026 38.6318 3H20.0166ZM38.4268 33.0049C38.9311 33.0562 39.3242 33.4825 39.3242 34V37L39.3193 37.1025C39.268 37.6065 38.842 37.9999 38.3242 38C37.7721 37.9998 37.3242 37.5522 37.3242 37V34C37.3242 33.4478 37.7721 33.0002 38.3242 33L38.4268 33.0049ZM20.4268 33.0049C20.9311 33.0562 21.3242 33.4825 21.3242 34V37L21.3193 37.1025C21.268 37.6065 20.842 37.9999 20.3242 38C19.7721 37.9998 19.3242 37.5522 19.3242 37V34C19.3242 33.4478 19.7721 33.0002 20.3242 33L20.4268 33.0049ZM11.9541 19.25C11.8267 17.5788 9.76652 16.7796 8.5459 18L4.5957 21.9502C3.86461 22.6821 3.81845 23.8403 4.45898 24.626L4.5957 24.7783L8.5459 28.7275C9.80576 29.9874 11.96 29.0954 11.96 27.3135V19.4141L11.9541 19.25ZM37.6621 9.00977C38.6382 9.10607 39.4133 9.90569 39.4609 10.9053L40.1748 25.9053C40.2289 27.0459 39.3193 28 38.1777 28H20.4697C19.3283 27.9996 18.4186 27.0455 18.4727 25.9053L19.1865 10.9053C19.2373 9.83915 20.117 9.00017 21.1846 9H37.4639L37.6621 9.00977Z" fill="white" stroke="black" stroke-width="2"/>
</svg>
